<svg width="16" height="28" viewBox="0 0 16 28" fill="none" xmlns="http://www.w3.org/2000/svg">
<path d="M4.81239 15.7191C4.71225 15.7191 2.50923 15.7191 1.50785 15.7191C0.973781 15.7191 0.806885 15.5188 0.806885 15.0181C0.806885 13.6829 0.806885 12.3144 0.806885 10.9792C0.806885 10.4452 1.00716 10.2783 1.50785 10.2783H4.81239C4.81239 10.1781 4.81239 8.24212 4.81239 7.34088C4.81239 6.00571 5.04605 4.7373 5.71363 3.56903C6.41459 2.36738 7.41597 1.56628 8.68438 1.09897C9.51886 0.798556 10.3533 0.665039 11.2546 0.665039H14.5257C14.9931 0.665039 15.1933 0.865314 15.1933 1.33262V5.13786C15.1933 5.60516 14.9931 5.80544 14.5257 5.80544C13.6245 5.80544 12.7233 5.80544 11.822 5.83882C10.9208 5.83882 10.4535 6.27275 10.4535 7.20737C10.4201 8.20874 10.4535 9.17674 10.4535 10.2115H14.3255C14.8595 10.2115 15.0598 10.4118 15.0598 10.9458V14.9847C15.0598 15.5188 14.8929 15.6857 14.3255 15.6857C13.1238 15.6857 10.5536 15.6857 10.4535 15.6857V26.5673C10.4535 27.1348 10.2866 27.335 9.68576 27.335C8.28383 27.335 6.91528 27.335 5.51336 27.335C5.01267 27.335 4.81239 27.1348 4.81239 26.6341C4.81239 23.1293 4.81239 15.8192 4.81239 15.7191Z" fill="white"/>
</svg>
