<svg width="26" height="26" viewBox="0 0 26 26" fill="none" xmlns="http://www.w3.org/2000/svg">
<path d="M8.74925 13.0589C8.74925 10.7064 10.6553 8.79878 13.0071 8.79878C15.359 8.79878 17.266 10.7064 17.266 13.0589C17.266 15.4114 15.359 17.319 13.0071 17.319C10.6553 17.319 8.74925 15.4114 8.74925 13.0589ZM6.44697 13.0589C6.44697 16.6831 9.38395 19.621 13.0071 19.621C16.6303 19.621 19.5673 16.6831 19.5673 13.0589C19.5673 9.43469 16.6303 6.49686 13.0071 6.49686C9.38395 6.49686 6.44697 9.43469 6.44697 13.0589ZM18.2939 6.23667C18.2938 6.53998 18.3836 6.8365 18.5519 7.08876C18.7203 7.34101 18.9597 7.53766 19.2397 7.65384C19.5198 7.77002 19.8281 7.80052 20.1255 7.74146C20.4229 7.68241 20.6961 7.53647 20.9106 7.32209C21.1251 7.1077 21.2712 6.83451 21.3305 6.53706C21.3898 6.23961 21.3595 5.93126 21.2436 5.651C21.1277 5.37074 20.9313 5.13115 20.6792 4.96255C20.4272 4.79394 20.1308 4.70388 19.8276 4.70376H19.827C19.4206 4.70395 19.0308 4.86549 18.7434 5.15291C18.4559 5.44033 18.2943 5.83012 18.2939 6.23667ZM7.84576 23.461C6.60018 23.4043 5.92317 23.1967 5.47326 23.0214C4.87679 22.7891 4.4512 22.5125 4.00375 22.0655C3.55629 21.6185 3.27932 21.1932 3.04813 20.5966C2.87274 20.1468 2.66527 19.4694 2.60864 18.2234C2.54671 16.8764 2.53434 16.4717 2.53434 13.059C2.53434 9.64631 2.54773 9.24279 2.60864 7.89462C2.66537 6.64868 2.87438 5.9726 3.04813 5.52144C3.28034 4.92479 3.55691 4.49909 4.00375 4.0515C4.45059 3.60392 4.87577 3.32686 5.47326 3.0956C5.92296 2.92017 6.60018 2.71263 7.84576 2.65599C9.19242 2.59404 9.59694 2.58167 13.0071 2.58167C16.4173 2.58167 16.8223 2.59506 18.17 2.65599C19.4156 2.71273 20.0915 2.9218 20.5425 3.0956C21.139 3.32686 21.5646 3.60453 22.0121 4.0515C22.4595 4.49847 22.7355 4.92479 22.9677 5.52144C23.1431 5.97127 23.3505 6.64868 23.4072 7.89462C23.4691 9.24279 23.4815 9.64631 23.4815 13.059C23.4815 16.4717 23.4691 16.8752 23.4072 18.2234C23.3504 19.4694 23.1419 20.1466 22.9677 20.5966C22.7355 21.1932 22.4589 21.619 22.0121 22.0655C21.5652 22.5121 21.139 22.7891 20.5425 23.0214C20.0928 23.1968 19.4156 23.4044 18.17 23.461C16.8234 23.523 16.4189 23.5353 13.0071 23.5353C9.59541 23.5353 9.19201 23.523 7.84576 23.461ZM7.73997 0.356933C6.37992 0.418887 5.45057 0.634603 4.63896 0.950509C3.79842 1.27674 3.08686 1.71441 2.37582 2.42453C1.66478 3.13466 1.22836 3.84754 0.90222 4.68832C0.586405 5.50068 0.370751 6.42979 0.308815 7.79024C0.245856 9.15282 0.231445 9.58845 0.231445 13.0589C0.231445 16.5294 0.245856 16.965 0.308815 18.3276C0.370751 19.6881 0.586405 20.6172 0.90222 21.4295C1.22836 22.2698 1.66488 22.9835 2.37582 23.6933C3.08676 24.4031 3.79842 24.8402 4.63896 25.1673C5.4521 25.4832 6.37992 25.6989 7.73997 25.7609C9.10288 25.8229 9.53767 25.8383 13.0071 25.8383C16.4766 25.8383 16.9121 25.8239 18.2743 25.7609C19.6344 25.6989 20.5632 25.4832 21.3753 25.1673C22.2153 24.8402 22.9274 24.4034 23.6384 23.6933C24.3495 22.9832 24.785 22.2698 25.112 21.4295C25.4279 20.6172 25.6445 19.688 25.7055 18.3276C25.7674 16.964 25.7818 16.5294 25.7818 13.0589C25.7818 9.58845 25.7674 9.15282 25.7055 7.79024C25.6435 6.42969 25.4279 5.50017 25.112 4.68832C24.785 3.84805 24.3484 3.13578 23.6384 2.42453C22.9285 1.71328 22.2153 1.27674 21.3763 0.950509C20.5632 0.634603 19.6343 0.417865 18.2753 0.356933C16.9131 0.294979 16.4776 0.279541 13.0082 0.279541C9.53869 0.279541 9.10288 0.293956 7.73997 0.356933Z" fill="white"/>
</svg>
