<svg width="28" height="26" viewBox="0 0 28 26" fill="none" xmlns="http://www.w3.org/2000/svg">
<path d="M14 0.220947C6.64912 0.220947 0.665039 5.10822 0.665039 11.1145C0.665039 16.4941 5.41008 21.0013 11.8164 21.8581C12.2509 21.9503 12.8421 22.147 12.9921 22.5182C13.1255 22.8549 13.0799 23.375 13.0344 23.7261L12.8521 24.8662C12.8021 25.203 12.5854 26.192 14.0178 25.5875C15.4524 24.9852 21.7032 21.0269 24.5036 17.7876C26.4194 15.6762 27.335 13.5126 27.335 11.1145C27.335 5.10822 21.351 0.220947 14 0.220947ZM8.7805 14.6861H6.12906C5.74567 14.6861 5.42897 14.3672 5.42897 13.9827V8.64756C5.42897 8.26195 5.74567 7.94302 6.12906 7.94302C6.51577 7.94302 6.82914 8.26195 6.82914 8.64756V13.2781H8.7805C9.16721 13.2781 9.47947 13.5948 9.47947 13.9827C9.47947 14.3672 9.1661 14.6861 8.7805 14.6861ZM11.5208 13.9827C11.5208 14.3672 11.2075 14.6861 10.8196 14.6861C10.4363 14.6861 10.1229 14.3672 10.1229 13.9827V8.64756C10.1229 8.26195 10.4363 7.94302 10.823 7.94302C11.2075 7.94302 11.5208 8.26195 11.5208 8.64756V13.9827ZM17.9005 13.9827C17.9005 14.2849 17.7072 14.5527 17.4205 14.6494C17.3493 14.6728 17.2727 14.6839 17.1993 14.6839C16.9649 14.6839 16.7648 14.5827 16.6326 14.4038L13.9178 10.6945V13.9816C13.9178 14.366 13.6078 14.685 13.2166 14.685C12.8321 14.685 12.521 14.366 12.521 13.9816V8.64756C12.521 8.3453 12.7132 8.07748 12.9988 7.98192C13.0655 7.95636 13.1499 7.94525 13.2144 7.94525C13.4311 7.94525 13.6311 8.06193 13.7645 8.22972L16.5004 11.9535V8.64756C16.5004 8.26195 16.8137 7.94302 17.2004 7.94302C17.5838 7.94302 17.9005 8.26195 17.9005 8.64756V13.9827ZM22.1844 10.61C22.5722 10.61 22.8845 10.929 22.8845 11.3157C22.8845 11.7013 22.5722 12.0202 22.1844 12.0202H20.2342V13.2781H22.1844C22.5722 13.2781 22.8845 13.5948 22.8845 13.9827C22.8845 14.3672 22.5722 14.6861 22.1844 14.6861H19.533C19.1496 14.6861 18.8362 14.3672 18.8362 13.9827V8.64756C18.8362 8.26195 19.1496 7.94302 19.5363 7.94302H22.1877C22.5722 7.94302 22.8845 8.26195 22.8845 8.64756C22.8845 9.0376 22.5722 9.35209 22.1844 9.35209H20.2342V10.61H22.1844Z" fill="white"/>
</svg>
