<svg width="28" height="28" viewBox="0 0 28 28" fill="none" xmlns="http://www.w3.org/2000/svg">
<g clip-path="url(#clip0_192_17645)">
<path d="M0.513672 26.5155L2.38062 19.5855C0.874973 16.8859 0.396614 13.7357 1.03332 10.713C1.67003 7.69029 3.3791 4.99778 5.84691 3.12957C8.31471 1.26136 11.3757 0.34276 14.4682 0.542341C17.5608 0.741922 20.4774 2.04629 22.6828 4.2161C24.8883 6.38591 26.2346 9.2756 26.4749 12.3549C26.7151 15.4342 25.8332 18.4966 23.9908 20.9802C22.1484 23.4637 19.4691 25.2017 16.4447 25.8753C13.4204 26.549 10.2537 26.113 7.52575 24.6475L0.513672 26.5155ZM7.86386 22.0542L8.29752 22.3106C10.2734 23.4779 12.5812 23.9609 14.8613 23.6844C17.1414 23.4079 19.2656 22.3875 20.9031 20.7822C22.5405 19.1768 23.5991 17.0767 23.914 14.8091C24.2288 12.5415 23.7822 10.2338 22.6436 8.24566C21.5051 6.25747 19.7387 4.70049 17.6196 3.81733C15.5005 2.93418 13.1478 2.77446 10.9282 3.36308C8.70852 3.9517 6.74657 5.25559 5.34807 7.07155C3.94957 8.88751 3.19308 11.1135 3.19649 13.4027C3.19463 15.3008 3.72134 17.1622 4.71798 18.7797L4.98994 19.2266L3.94621 23.0945L7.86386 22.0542Z" fill="white"/>
<path fill-rule="evenodd" clip-rule="evenodd" d="M18.0959 14.4624C17.8511 14.2496 17.5645 14.0998 17.2579 14.0244C16.9513 13.9491 16.6328 13.9501 16.3266 14.0275C15.8666 14.2335 15.5694 15.0118 15.2721 15.4009C15.2094 15.4941 15.1173 15.5596 15.0131 15.5848C14.9089 15.6101 14.7996 15.5935 14.7059 15.5382C13.0218 14.8271 11.6102 13.523 10.7003 11.8379C10.6227 11.7327 10.5859 11.5992 10.5978 11.4654C10.6097 11.3316 10.6693 11.2081 10.764 11.1207C11.0955 10.7669 11.3389 10.3287 11.4717 9.84656C11.5012 9.31479 11.3882 8.7851 11.1461 8.32065C10.959 7.66951 10.6029 7.08972 10.1199 6.64978C9.87083 6.52899 9.59462 6.48849 9.32463 6.53317C9.05464 6.57784 8.80241 6.70578 8.59836 6.90155C8.24413 7.23103 7.96296 7.64197 7.77556 8.10411C7.58817 8.56626 7.49932 9.06783 7.51556 9.57189C7.51665 9.85496 7.54993 10.1368 7.61464 10.4111C7.77897 11.0703 8.0317 11.7 8.36481 12.2804C8.60515 12.725 8.86738 13.1554 9.15038 13.5698C10.0701 14.9309 11.2262 16.0865 12.5545 16.9726C13.221 17.4228 13.9334 17.7889 14.6776 18.0636C15.4507 18.4414 16.3042 18.5864 17.1476 18.4832C17.6281 18.4048 18.0833 18.2003 18.4733 17.8876C18.8633 17.575 19.176 17.1638 19.3839 16.6903C19.5061 16.4042 19.5432 16.0844 19.4901 15.7747C19.3627 15.1415 18.5771 14.7676 18.0959 14.4624Z" fill="white"/>
</g>
<defs>
<clipPath id="clip0_192_17645">
<rect width="26.67" height="26.67" fill="white" transform="translate(0.665039 0.665039)"/>
</clipPath>
</defs>
</svg>
