<svg width="71" height="51" viewBox="0 0 71 51" fill="none" xmlns="http://www.w3.org/2000/svg">
<path d="M6.55172 8.86841L17.7131 7.00818V40.8606L12.8018 41.8946C9.51306 42.587 6.29705 40.4433 5.67081 37.1413L1.64319 15.9048C1.01599 12.5977 3.23148 9.42178 6.55172 8.86841Z" fill="#FAFAFA" stroke="#888684" stroke-width="2"/>
<path d="M64.4483 8.86841L53.2869 7.00818V40.8606L58.1982 41.8946C61.4869 42.587 64.703 40.4433 65.3292 37.1413L69.3568 15.9048C69.984 12.5977 67.7685 9.42178 64.4483 8.86841Z" fill="#FAFAFA" stroke="#888684" stroke-width="2"/>
<g filter="url(#filter0_d_241_18508)">
<rect x="17.5657" y="1.12292" width="35.8689" height="42.7541" rx="5" stroke="#888684" stroke-width="2" shape-rendering="crispEdges"/>
</g>
<path d="M39.4827 33.2123C40.2833 34.1335 41.7152 34.1287 42.51 33.2025L47.7454 27.099L53.4348 33.2211V38.8773C53.4347 41.6385 51.196 43.8772 48.4348 43.8773H22.5657C19.8043 43.8773 17.5658 41.6386 17.5657 38.8773V35.4164L29.9729 22.2679L39.4827 33.2123Z" fill="#FAFAFA" stroke="#888684" stroke-width="2"/>
<circle cx="40.0902" cy="14.4672" r="4.16393" fill="#FAFAFA" stroke="#888684" stroke-width="2"/>
<defs>
<filter id="filter0_d_241_18508" x="13.5657" y="0.122925" width="43.8689" height="50.7541" filterUnits="userSpaceOnUse" color-interpolation-filters="sRGB">
<feFlood flood-opacity="0" result="BackgroundImageFix"/>
<feColorMatrix in="SourceAlpha" type="matrix" values="0 0 0 0 0 0 0 0 0 0 0 0 0 0 0 0 0 0 127 0" result="hardAlpha"/>
<feOffset dy="3"/>
<feGaussianBlur stdDeviation="1.5"/>
<feComposite in2="hardAlpha" operator="out"/>
<feColorMatrix type="matrix" values="0 0 0 0 0 0 0 0 0 0 0 0 0 0 0 0 0 0 0.12 0"/>
<feBlend mode="normal" in2="BackgroundImageFix" result="effect1_dropShadow_241_18508"/>
<feBlend mode="normal" in="SourceGraphic" in2="effect1_dropShadow_241_18508" result="shape"/>
</filter>
</defs>
</svg>
